# xmcd CD database file
#
# Track frame offsets:
#	150
#	8465
#	13905
#	19458
#	29541
#	41860
#	45355
#	57598
#	73468
#	74238
#	77233
#	90828
#	100551
#	117026
#	118611
#	135485
#	140887
#	146557
#
# Disc length: 2094 seconds
#
# Revision: 6
# Processed by: cddbd v1.5.2PL0 Copyright (c) Steve Scherf et al.
# Submitted via: CDex 1.70beta2
#
DISCID=05082c12
DTITLE=Elvis Presley - The Elvis Presley Collection Legends Vol 2
DYEAR=1999
DGENRE=Classic Rock
TTITLE0=At the End of the Road
TTITLE1=Jerry's Boogie
TTITLE2=That's My Desire
TTITLE3=Don't Be Cruel
TTITLE4=Soft and Tenderly
TTITLE5=You Belong to My Heart
TTITLE6=Walk That Lonesome Valley
TTITLE7=I Shall Not Be Moved
TTITLE8=Summertime Has Passed and Gone
TTITLE9=I Hear a Sweet Voice Calling
TTITLE10=Paralysed
TTITLE11=Keeper of the Key
TTITLE12=There's No Place Like Home
TTITLE13=Rip it Up
TTITLE14=Crazy Arms
TTITLE15=Is It So Strange
TTITLE16=Don't Forbid Me
TTITLE17=When the Saints Go Marching In
EXTD=\nRecord number Metronome, Metro 289\nP and C "Dressed To Kill"\n YEAR: 1999
EXTT0=
EXTT1=
EXTT2=
EXTT3=
EXTT4=
EXTT5=
EXTT6=
EXTT7=
EXTT8=
EXTT9=
EXTT10=
EXTT11=
EXTT12=
EXTT13=
EXTT14=
EXTT15=
EXTT16=
EXTT17=
PLAYORDER=
